<?xml version="1.0" encoding="UTF-8" standalone="no"?>
<svg
   width="24"
   height="24"
   viewBox="0 0 24 24"
   version="1.1"
   id="svg4"
   sodipodi:docname="icon.svg"
   inkscape:version="1.2.2 (b0a8486541, 2022-12-01)"
   xmlns:inkscape="http://www.inkscape.org/namespaces/inkscape"
   xmlns:sodipodi="http://sodipodi.sourceforge.net/DTD/sodipodi-0.dtd"
   xmlns="http://www.w3.org/2000/svg"
   xmlns:svg="http://www.w3.org/2000/svg">
  <defs
     id="defs8" />
  <sodipodi:namedview
     id="namedview6"
     pagecolor="#ffffff"
     bordercolor="#000000"
     borderopacity="0.25"
     inkscape:showpageshadow="2"
     inkscape:pageopacity="0.0"
     inkscape:pagecheckerboard="0"
     inkscape:deskcolor="#d1d1d1"
     showgrid="false"
     inkscape:zoom="15.385939"
     inkscape:cx="-0.12998881"
     inkscape:cy="22.488065"
     inkscape:window-width="1920"
     inkscape:window-height="975"
     inkscape:window-x="0"
     inkscape:window-y="32"
     inkscape:window-maximized="1"
     inkscape:current-layer="svg4" />
  <path
     d="M12 0c-2.762 0-5 2.238-5 5s2.238 5 5 5 5-2.238 5-5-2.238-5-5-5zm.25 7.474v.526h-.5v-.499c-.518-.009-1.053-.132-1.5-.363l.228-.822c.478.186 1.114.383 1.612.271.574-.131.692-.722.057-1.006-.465-.217-1.889-.402-1.889-1.621 0-.682.52-1.292 1.492-1.426v-.534h.5v.509c.361.01.768.073 1.221.21l-.181.824c-.384-.135-.808-.258-1.222-.232-.744.043-.81.688-.29.958.855.402 1.972.7 1.972 1.772.002.859-.672 1.316-1.5 1.433zm-.25 6.526c-2.762 0-5 2.238-5 5s2.238 5 5 5 5-2.238 5-5-2.238-5-5-5zm0 9c-2.205 0-4-1.795-4-4s1.795-4 4-4c2.206 0 4 1.795 4 4s-1.794 4-4 4zm9.577-13.613c1.233 2.352 1.548 6.801-2.585 9.756.019-.882-.113-1.706-.436-2.572 2.113-1.744 2.051-4.264 1.193-6.234l-2.377 1.236 1.596-5.182 5.032 1.737-2.423 1.259zm-19.154 5.611c-1.233-2.352-1.46-7.146 2.672-10.101-.019.882.114 1.707.436 2.572-2.114 1.745-2.139 4.609-1.281 6.58l2.377-1.236-1.596 5.182-5.031-1.738 2.423-1.259zm9.576 7.002v-.756h-.248v.756h-.502v-.756h-1.242l.127-.744h.27c.219 0 .347-.213.347-.427v-2.222c0-.208-.122-.351-.341-.351h-.41v-.75h1.249v-.75h.502v.75h.248v-.75h.502v.763c1.078.037 1.506.445 1.629.907.143.545-.216 1.002-.525 1.114.375.096.896.373.896 1.013 0 .871-.673 1.454-1.999 1.454v.749h-.503zm-.248-2.751v1.251c.991 0 1.671-.094 1.671-.629 0-.575-.734-.622-1.671-.622zm0-.499c.552 0 1.395-.04 1.395-.626 0-.499-.521-.625-1.395-.625v1.251z"
     id="path2" />
  <path
     style="fill:#008000;stroke-width:0.999999"
     d="M 11.599506,9.9661694 C 9.8567802,9.8289906 8.2926784,8.7546547 7.5204724,7.1644005 6.4760936,5.0136433 7.1040234,2.4536384 9.0309733,1.0062441 10.321022,0.03724702 12.044447,-0.23643748 13.593084,0.28176875 c 0.762052,0.25499867 1.417789,0.67737345 2.01514,1.29799575 1.432084,1.4878757 1.779463,3.7144047 0.871304,5.584636 -0.898911,1.8511862 -2.834984,2.9627445 -4.880022,2.8017689 z m 0.66749,-2.21613 V 7.49019 l 0.237248,-0.053325 c 0.526429,-0.1183218 0.950794,-0.4220773 1.136044,-0.8131669 0.09137,-0.192898 0.09519,-0.2158454 0.09519,-0.5724062 0,-0.3582488 -0.0034,-0.3783344 -0.09532,-0.5650787 C 13.435638,5.070782 13.121531,4.8442748 12.160071,4.4189031 11.937706,4.3205239 11.711805,4.2064972 11.658068,4.16551 11.457558,4.0125736 11.40373,3.7275139 11.543905,3.560926 c 0.237951,-0.2827894 0.780399,-0.3093852 1.519982,-0.074524 0.123228,0.039132 0.227814,0.067385 0.232414,0.062785 0.02209,-0.022086 0.190524,-0.8262682 0.176087,-0.8407051 -0.03632,-0.036315 -0.609495,-0.1575982 -0.898492,-0.1901175 l -0.3069,-0.034534 V 2.2357347 1.9876391 H 12 11.733004 V 2.2516574 2.5156758 L 11.509413,2.56542 C 11.070569,2.663054 10.64828,2.9373455 10.447747,3.2550105 10.30073,3.487901 10.242142,3.722807 10.257006,4.0197775 c 0.01953,0.3901664 0.09731,0.5699751 0.360698,0.8338796 0.242636,0.2431078 0.540034,0.4027582 1.119486,0.6009665 0.420294,0.1437665 0.549212,0.2076599 0.671623,0.3328654 0.201555,0.2061553 0.192088,0.4441359 -0.02506,0.6300092 -0.296068,0.2534234 -0.86861,0.2415537 -1.665391,-0.034526 L 10.465185,6.2952482 10.35744,6.6892454 c -0.05926,0.2166986 -0.107745,0.4127395 -0.107745,0.4356469 0,0.052369 0.468624,0.2380227 0.770849,0.3053856 0.122113,0.027218 0.332373,0.057274 0.467244,0.066792 l 0.24522,0.017305 v 0.247757 0.2477569 H 12 12.266996 Z"
     id="path860" />
  <path
     style="fill:#008000;stroke-width:0.999999"
     d="M 11.573066,22.961909 C 10.185735,22.786809 9.0481929,21.986423 8.431604,20.751545 7.8535436,19.59383 7.8928142,18.159654 8.5330025,17.048441 c 0.5924181,-1.028295 1.5806065,-1.736706 2.7449425,-1.967789 0.358852,-0.07122 1.085258,-0.07122 1.44411,0 1.671627,0.331764 2.9356,1.630563 3.209169,3.297593 0.05632,0.343204 0.05601,0.903809 -7e-4,1.253473 -0.229537,1.415289 -1.260195,2.649632 -2.604785,3.119559 -0.532921,0.186253 -1.25668,0.273233 -1.752671,0.210632 z m 0.189604,-1.320376 v -0.370828 h 0.103832 0.103832 v 0.370828 0.370828 h 0.266996 0.266996 v -0.365817 -0.365816 l 0.333746,-0.03351 c 0.425212,-0.04269 0.630385,-0.09638 0.931446,-0.243734 0.417461,-0.204322 0.661025,-0.537916 0.727939,-0.997011 0.06205,-0.425726 -0.06396,-0.758924 -0.377463,-0.998102 -0.08095,-0.06176 -0.2106,-0.135152 -0.288103,-0.163092 -0.0775,-0.02794 -0.140876,-0.05768 -0.140829,-0.06609 5.9e-5,-0.0084 0.04093,-0.04199 0.09085,-0.07462 0.117952,-0.0771 0.28333,-0.301418 0.339416,-0.460382 0.06431,-0.182272 0.05675,-0.49795 -0.01662,-0.694055 -0.163058,-0.435811 -0.673027,-0.729023 -1.355637,-0.779439 l -0.244747,-0.01808 V 16.371366 15.990111 H 12.23733 11.970334 v 0.370828 0.370829 H 11.866502 11.76267 v -0.370829 -0.370828 h -0.266996 -0.266997 v 0.370828 0.370829 H 10.605686 9.9826947 v 0.385661 0.385661 h 0.2234493 c 0.123987,0 0.267518,0.01841 0.322452,0.04137 0.201288,0.0841 0.195767,0.04386 0.195644,1.426298 -1.07e-4,1.198217 -0.0024,1.250625 -0.05998,1.344999 -0.07267,0.119195 -0.215787,0.183629 -0.407864,0.183629 H 10.11286 l -0.05195,0.333745 c -0.02858,0.18356 -0.05876,0.357108 -0.067082,0.385662 -0.014067,0.04828 0.02865,0.05192 0.609864,0.05192 h 0.62499 v 0.370828 0.370828 h 0.266997 0.266996 z"
     id="path931" />
  <path
     style="fill:#008000;stroke-width:0.999999"
     d="M 11.76267,18.124551 V 17.49951 l 0.289246,0.01953 c 0.748952,0.05058 1.075402,0.22825 1.075402,0.585277 0,0.339533 -0.306532,0.555266 -0.852888,0.600252 -0.110145,0.0091 -0.270351,0.02291 -0.356012,0.03075 l -0.155748,0.01426 z"
     id="path933" />
  <path
     style="fill:#008000;stroke-width:0.999999"
     d="m 11.76267,19.869445 v -0.616046 l 0.126082,6.73e-4 c 0.291679,0.0016 0.877585,0.0616 1.029882,0.105538 0.333318,0.09616 0.47568,0.248343 0.47568,0.508479 0,0.391199 -0.408374,0.582461 -1.297899,0.607869 l -0.333745,0.0095 z"
     id="path935" />
  <path
     style="fill:#000000;stroke-width:0.999999"
     d="M 11.76267,7.7325016 V 7.4847809 l -0.25958,-0.019048 c -0.142769,-0.010476 -0.369471,-0.04559 -0.503783,-0.078029 -0.314689,-0.076005 -0.720225,-0.2324555 -0.718987,-0.2773753 0.0013,-0.045816 0.197102,-0.7323732 0.21362,-0.7488911 0.007,-0.007 0.111771,0.021036 0.232819,0.062308 0.857134,0.2922351 1.513923,0.2725631 1.757572,-0.052643 0.09669,-0.129055 0.117794,-0.2089682 0.09337,-0.3535485 C 12.553278,5.8730109 12.39851,5.6891499 12.228061,5.6021936 12.16363,5.5693231 11.935876,5.482474 11.72194,5.4091956 10.735082,5.0711706 10.330192,4.6923049 10.287318,4.066784 10.238485,3.3543333 10.689482,2.8143884 11.510725,2.6020887 l 0.251945,-0.06513 V 2.2771318 2.0173053 H 12 12.23733 v 0.2521632 0.2521631 l 0.08158,1.751e-4 c 0.201415,4.316e-4 1.012981,0.1498352 1.096239,0.2018098 0.03303,0.020622 0.0064,0.1783744 -0.124195,0.736848 l -0.0149,0.063678 -0.259785,-0.083375 c -0.891026,-0.2859665 -1.580211,-0.131762 -1.579817,0.3534837 2.26e-4,0.2759693 0.139024,0.4032241 0.726712,0.6662673 1.015778,0.4546514 1.291239,0.6654751 1.484896,1.1364645 0.0558,0.1357062 0.07133,0.2280199 0.07188,0.4272988 0.0014,0.5074318 -0.184012,0.8536145 -0.604883,1.1293412 -0.174982,0.114637 -0.663941,0.2926069 -0.803914,0.2926069 -0.07317,0 -0.07381,0.00232 -0.07381,0.2669963 V 7.9802225 H 12 11.76267 Z"
     id="path1008" />
  <path
     style="fill:#ffffff;stroke-width:0.999999"
     d="m 19.001236,18.825591 c 0,-0.57142 -0.119051,-1.302301 -0.310195,-1.90436 l -0.104673,-0.329697 0.348349,-0.352627 c 0.396177,-0.401043 0.665101,-0.766273 0.887936,-1.20592 0.647585,-1.27767 0.659341,-2.844612 0.03361,-4.479217 -0.04841,-0.126452 -0.09705,-0.22952 -0.108105,-0.229039 -0.01105,4.81e-4 -0.540736,0.272496 -1.177077,0.604478 -0.636342,0.331981 -1.159429,0.601702 -1.162417,0.599379 -0.0053,-0.0041 1.496511,-4.8821732 1.550345,-5.0355967 l 0.0274,-0.078084 2.447466,0.844408 c 1.346107,0.4644244 2.457386,0.8539074 2.46951,0.8655177 0.01212,0.01161 -0.508518,0.2974148 -1.156984,0.635121 -0.648465,0.3377062 -1.176268,0.6241521 -1.172895,0.6365467 0.0034,0.012395 0.07177,0.1693833 0.151999,0.3488641 0.773283,1.7299812 0.855952,3.7570942 0.226847,5.5624232 -0.497371,1.427291 -1.476505,2.710503 -2.839861,3.721802 l -0.111249,0.08252 z"
     id="path861" />
  <path
     style="fill:#ffffff;stroke-width:0.999999"
     d="M 2.5661311,17.126236 C 1.2200247,16.661435 0.1085561,16.271635 0.09620075,16.260011 0.0838454,16.248388 0.60448818,15.962869 1.2531847,15.625524 1.9018812,15.288179 2.4296926,15.001922 2.426099,14.989397 2.4225053,14.976873 2.3448255,14.794293 2.2534772,14.583663 1.9895406,13.975082 1.7870473,13.191958 1.7004797,12.444994 1.6528361,12.033893 1.6538264,10.996225 1.7022351,10.605686 1.9824205,8.3452783 3.0753784,6.4504884 4.8979746,5.06544 l 0.1810401,-0.1375782 0.017783,0.4656118 c 0.024753,0.6481143 0.135497,1.2540771 0.3356938,1.8368354 L 5.5060901,7.4445487 5.185678,7.7657767 C 4.8015163,8.1509166 4.5276214,8.5255601 4.2847177,8.998143 3.5705515,10.387594 3.5179491,12.20026 4.1443859,13.833935 c 0.070711,0.184408 0.098872,0.228148 0.137372,0.213375 0.026635,-0.01022 0.5477322,-0.278583 1.157994,-0.596359 0.6102619,-0.317777 1.1165649,-0.570777 1.1251183,-0.562224 0.012449,0.01245 -1.3973747,4.644716 -1.5185159,4.989396 l -0.032757,0.0932 z"
     id="path863" />
  <path
     style="fill:#ffffff;stroke-width:0.999999"
     d="M 11.644005,23.966006 C 9.6635544,23.836766 7.9056071,22.466756 7.2718938,20.558715 6.6712115,18.750127 7.1491776,16.7918 8.5185103,15.451068 c 0.3241094,-0.31734 0.3698313,-0.354855 0.7299099,-0.598889 1.2341068,-0.836385 2.8769548,-1.058968 4.3012518,-0.58276 1.084301,0.362531 1.959126,1.029108 2.590584,1.973905 1.473682,2.204943 0.963187,5.147203 -1.171229,6.750432 -0.719157,0.540182 -1.711142,0.916754 -2.538835,0.963778 -0.146865,0.0083 -0.307077,0.01867 -0.356026,0.02295 -0.04895,0.0043 -0.242522,-0.0022 -0.430161,-0.01448 z m 0.769071,-0.97585 c 0.893198,-0.09166 1.721442,-0.479496 2.371904,-1.110676 0.584563,-0.567235 0.965588,-1.24868 1.146532,-2.05052 0.07512,-0.332908 0.0912,-1.100767 0.03075,-1.468505 -0.276228,-1.680355 -1.54078,-2.972272 -3.23918,-3.309277 -0.361726,-0.07178 -1.085645,-0.07153 -1.448832,4.99e-4 -0.861596,0.170867 -1.5449797,0.539694 -2.1463381,1.158394 -0.4535376,0.466616 -0.7384414,0.933767 -0.9396315,1.540693 -0.157535,0.475234 -0.204456,0.831896 -0.1836315,1.395847 0.018804,0.509222 0.056537,0.727151 0.2003323,1.157009 0.4178562,1.249132 1.5150849,2.258391 2.8132488,2.587697 0.470883,0.119449 0.898636,0.14976 1.394843,0.09884 z"
     id="path865" />
</svg>
